<?xml version="1.0" encoding="utf-8"?>
<!-- Generator: Adobe Illustrator 16.0.0, SVG Export Plug-In . SVG Version: 6.00 Build 0)  -->
<!DOCTYPE svg PUBLIC "-//W3C//DTD SVG 1.1//EN" "http://www.w3.org/Graphics/SVG/1.1/DTD/svg11.dtd">
<svg version="1.1" id="health-category-critical-ill-women" xmlns="http://www.w3.org/2000/svg" xmlns:xlink="http://www.w3.org/1999/xlink" x="0px" y="0px"
	 viewBox="91.148 222.215 83.896 76.679" enable-background="new 91.148 222.215 83.896 76.679"
	 xml:space="preserve">
<g>
	<circle fill="#FF9B41" cx="143.254" cy="294.272" r="4.622"/>
	<circle fill="#5083FC" cx="94.432" cy="236.751" r="3.285"/>
	
		<rect x="160.49" y="235.719" transform="matrix(0.7071 0.7071 -0.7071 0.7071 219.7129 -46.9406)" fill="#45D7FF" width="12.057" height="12.056"/>
	<path fill="#1E3B88" d="M139.297,270.221c-1.108-1.995-2.451-3.461-0.855-8.671c0.599-1.952,2.192-4.399,3.754-7.948
		c3.335-7.581,3.458-15.71-1.531-23.67c-3.303-5.3-9.468-8.204-15.654-7.65c-5.618,0.504-10.687,3.858-13.311,8.859
		c-2.072,3.95-2.719,6.555-2.591,10.968c0.065,2.21,0.314,4.433,0.785,6.595c0.51,2.342,1.77,4.453,1.563,6.944
		c-0.369,4.457-4.568,8.685-8.172,10.907"/>
	<path fill="#1E3B88" d="M120.594,256.556c0,0-2.688-2.597-3.585-3.917l-1.721-1.669c0,0,2.226,7.384,1.323,10.15l3.717-0.663
		C120.328,260.457,120.088,257.61,120.594,256.556z"/>
	<linearGradient id="health-category-critical-ill-women-1" gradientUnits="userSpaceOnUse" x1="96.0139" y1="271.3511" x2="156.7659" y2="271.3511">
		<stop  offset="0" style="stop-color:#3988FD"/>
		<stop  offset="0.7154" style="stop-color:#1B4DC1"/>
	</linearGradient>
	<path fill="url(#health-category-critical-ill-women-1)" d="M119.849,257.681l-0.177,2.217l-2.794,0.821l-4.301,1.264h-0.022l-2.661,0.775
		c-1.264,0.377-2.461,0.865-3.57,1.463c-0.155,0.09-0.244,0.134-0.244,0.134c-3.459,1.908-6.119,4.879-7.45,8.404l-2.616,6.917
		c0,0,29.112,11.996,60.752,0.044l-2.616-6.917c-1.796-4.745-5.964-8.448-11.264-9.999l-4.301-1.266"/>
	<path fill="#45D7FF" d="M134.198,259.822c0,7.61-14.542,7.536-14.543-0.064v-4.694l14.543,1.538V259.822z"/>
	<path fill="#1E3B88" d="M135.777,245.664c0,0,2.116,4.487-1.677,9.94c-3.793,5.453-4.866,5.631-2.32,10.812
		c2.545,5.181,8.75,6,3.638,12.135c0,0,6.589-4.319,5.205-7.534c-1.385-3.217-3.486-4.618-2.054-9.969
		C140,255.697,141.208,250.949,135.777,245.664z"/>
	<path fill="#45D7FF" d="M120.533,231.675c0,0-0.129,3.554-2.821,7.565c-2.691,4.01-3.835,7.39-3.011,10.224
		c0.825,2.834,3.582,6.29,6.456,8.464c2.874,2.174,7.922,2.796,11.533-0.583c3.612-3.377,4.481-8.367,3.386-11.037
		c-1.095-2.671-2.713-2.757-5.717-4.625C127.356,239.815,121.734,236.022,120.533,231.675z"/>
	<path fill="#FFFFFF" d="M119.076,276.099c0,0.229-0.208,0.413-0.463,0.413h-2.518v2.518c0,0.257-0.186,0.464-0.413,0.464h-2.485
		c-0.229,0-0.413-0.207-0.413-0.464v-2.518h-2.518c-0.255,0-0.464-0.184-0.464-0.413v-2.484c0-0.229,0.209-0.413,0.464-0.413h2.518
		v-2.518c0-0.255,0.186-0.463,0.413-0.463h2.485c0.228,0,0.413,0.208,0.413,0.463v2.518h2.518c0.256,0,0.463,0.185,0.463,0.413
		V276.099z"/>
</g>
</svg>
