<?xml version="1.0" encoding="utf-8"?>
<!-- Generator: Adobe Illustrator 16.0.0, SVG Export Plug-In . SVG Version: 6.00 Build 0)  -->
<!DOCTYPE svg PUBLIC "-//W3C//DTD SVG 1.1//EN" "http://www.w3.org/Graphics/SVG/1.1/DTD/svg11.dtd">
<svg version="1.1" id="individual-benefits-health-check-up" xmlns="http://www.w3.org/2000/svg" xmlns:xlink="http://www.w3.org/1999/xlink" x="0px" y="0px"
	 width="100px" height="100px" viewBox="0 0 100 100" enable-background="new 0 0 100 100" xml:space="preserve">
<circle fill="#FF9B41" cx="79.799" cy="84.712" r="3.29"/>
<circle fill="#5083FC" cx="11.239" cy="67.544" r="2.339"/>
<rect x="59.946" y="12.801" transform="matrix(-0.707 -0.7072 0.7072 -0.707 97.564 74.6032)" fill="#45D7FF" width="8.581" height="8.581"/>
<g>
	<path fill="#FFFFFF" d="M47.955,33.716c-7.098,1.693-11.48,8.821-9.788,15.919c1.692,7.099,8.819,11.478,15.919,9.789
		c7.098-1.693,11.479-8.82,9.787-15.918C62.181,36.406,55.053,32.024,47.955,33.716z"/>
	<ellipse fill="#FFFFFF" cx="73.027" cy="41.323" rx="4.404" ry="4.404"/>
	<path fill="#FFFFFF" d="M25.602,54.611c1.313-0.16,2.703-0.246,4.133-0.246c0.95,0,1.882,0.039,2.787,0.111
		c0.765-1.014,1.09-2.348,0.772-3.678c-0.564-2.368-2.94-3.829-5.307-3.265c-2.366,0.564-3.828,2.94-3.263,5.308
		C24.882,53.514,25.189,54.111,25.602,54.611z"/>
</g>
<linearGradient id="individual-benefits-health-check-up-1" gradientUnits="userSpaceOnUse" x1="37.3105" y1="23.6157" x2="25.3055" y2="29.2477">
	<stop  offset="0" style="stop-color:#3988FD"/>
	<stop  offset="0.7154" style="stop-color:#1B4DC1"/>
</linearGradient>
<circle fill="url(#individual-benefits-health-check-up-1)" cx="31.308" cy="26.432" r="6.628"/>
<linearGradient id="individual-benefits-health-check-up-2" gradientUnits="userSpaceOnUse" x1="59.4668" y1="46.3037" x2="16.4765" y2="66.472">
	<stop  offset="0" style="stop-color:#3988FD"/>
	<stop  offset="0.7154" style="stop-color:#1B4DC1"/>
</linearGradient>
<path fill="url(#individual-benefits-health-check-up-2)" d="M23.859,57.097v24.29c-0.05,1.672,1.181,3.105,2.841,3.311c1.732,0.169,3.273-1.101,3.442-2.834
	c0.009-0.099,0.014-0.198,0.015-0.299V63.897c-0.012-0.578,0.393-1.083,0.96-1.197c0.629-0.096,1.216,0.338,1.312,0.967
	c0.008,0.057,0.013,0.114,0.013,0.171v17.549c-0.049,1.678,1.193,3.115,2.861,3.311c1.733,0.169,3.274-1.101,3.442-2.834
	c0.01-0.099,0.015-0.198,0.015-0.299V44.966l3.132,4.099c0.848,1.107,2.353,1.474,3.616,0.881l10.045-4.728
	c1.398-0.63,2.111-2.202,1.662-3.668c-0.518-1.555-2.195-2.396-3.751-1.879c-0.111,0.037-0.222,0.081-0.328,0.131l-7.999,3.754
	l-5.112-6.807c-0.527-0.733-1.363-1.18-2.265-1.211H24.846c-2.82,0-5.105,2.285-5.105,5.105l0,0v11.45
	C19.741,54.53,21.467,56.627,23.859,57.097z"/>
<path fill="#1E3B88" d="M78.475,55.23H65.231c-0.73,0-1.324,0.593-1.324,1.324v2.768c0,0.731,0.594,1.324,1.324,1.324h13.243
	c0.732,0,1.324-0.593,1.324-1.324v-2.774C79.796,55.818,79.204,55.23,78.475,55.23z"/>
<path fill="#1E3B88" d="M78.475,70.011H65.231c-0.73,0-1.324,0.592-1.324,1.323v2.769c0,0.73,0.594,1.323,1.324,1.323h13.243
	c0.732,0,1.324-0.593,1.324-1.323v-2.774C79.796,70.599,79.204,70.011,78.475,70.011z"/>
<path fill="#1E3B88" d="M60.318,53.019l-1.517-1.517c-0.496-0.514-1.312-0.539-1.841-0.06l-6.271,5.542l-2.906-2.277
	c-0.532-0.431-1.304-0.384-1.781,0.105l-1.53,1.518c-0.507,0.492-0.536,1.297-0.066,1.827l5.297,6.139
	c0.483,0.548,1.32,0.601,1.869,0.116c0.042-0.036,0.08-0.076,0.117-0.116l8.676-9.397l0,0c0.506-0.527,0.489-1.365-0.039-1.871
	C60.324,53.023,60.321,53.021,60.318,53.019z"/>
<path fill="#1E3B88" d="M58.809,66.282c-0.497-0.514-1.312-0.54-1.842-0.06l-6.27,5.542l-2.914-2.298
	c-0.532-0.43-1.304-0.385-1.781,0.105l-1.53,1.537c-0.507,0.493-0.536,1.299-0.066,1.827l5.297,6.139
	c0.483,0.548,1.32,0.602,1.869,0.118c0.042-0.037,0.08-0.076,0.117-0.118l8.676-9.424c0.493-0.525,0.476-1.35-0.041-1.853
	L58.809,66.282z"/>
</svg>
